<svg width="67" height="66" viewBox="0 0 67 66" fill="none" xmlns="http://www.w3.org/2000/svg">
<path d="M0.744 4.17599V0.719999H30.504H60.36V1.10399C60.424 1.35999 60.936 5.488 61.896 13.488C62.728 21.296 63.208 25.424 63.336 25.872V26.256H59.88H56.424L56.232 24.624C55.656 20.464 54.888 17.296 53.928 15.12C51.944 11.088 48.264 8.688 42.888 7.92C41.16 7.728 37.928 7.632 33.192 7.632H27.144V18.096V28.656H28.872C31.816 28.656 33.96 28.304 35.304 27.6C36.392 27.152 37.192 26.448 37.704 25.488C38.6 24.016 39.048 21.744 39.048 18.672V17.424H42.504H45.96V32.112V46.8H42.504H39.048V45.552C39.048 42.48 38.6 40.208 37.704 38.736C37.192 37.776 36.392 37.072 35.304 36.624C33.96 35.92 31.816 35.568 28.872 35.568H27.144V47.28V59.088H33.384C37.928 59.088 40.488 59.056 41.064 58.992C47.592 58.544 52.2 56.432 54.888 52.656C55.208 52.272 55.624 51.536 56.136 50.448C57.288 48.208 58.28 44.688 59.112 39.888C59.24 38.608 59.368 37.84 59.496 37.584V37.296H62.952H66.408V37.584C66.344 37.712 65.608 42.384 64.2 51.6C62.792 60.88 62.056 65.584 61.992 65.712V66H31.368H0.744V62.544V59.088H5.928H11.112V33.36V7.632H5.928H0.744V4.17599Z" fill="#5D6ABD"/>
</svg>
